<svg fill="none" viewBox="0 0 219 72" xmlns="http://www.w3.org/2000/svg"><rect fill="#fff" height="72" rx="7" width="219"/><g fill="#959595"><path d="m60.3749 47.4733c-.6517 2.0368-1.4663 3.992-2.5253 5.7844-1.3848 2.3626-2.9325 4.6437-4.969 6.5175-1.8736 1.7109-4.073 2.1997-6.5168 1.4665-.6517-.2444-1.3848-.4074-2.0365-.7332-3.014-1.3035-6.028-1.3035-9.0421-.0815-1.1404.4888-2.4438.8962-3.6657 1.0591-2.0364.3259-3.6656-.5703-5.0504-1.9553-3.5843-3.5032-6.1095-7.7396-7.7387-12.4648-1.3034-3.8291-1.9551-7.8211-1.7107-11.8946.3259-4.1549 1.7107-7.8211 4.8876-10.6725 3.7472-3.3402 8.0645-4.2364 12.8706-2.3626.9776.4073 2.0366.7332 3.0955 1.1406.8146.3258 1.6292.2444 2.4438-.0815 2.0365-.6518 4.073-1.5479 6.1095-1.9553 4.9691-.8147 9.205.6518 12.3819 4.8067 0 .0815.0814.0815.0814.163 0 0 .0001.0814.0815.1629-3.9915 2.5256-6.028 6.0288-5.7022 10.8355.2444 4.9696 2.8511 8.1469 7.0056 10.2651z"/><path d="m113.323 58.879c0-6.4361 0-12.8722 0-19.3898h2.199c.081.7333.081 1.385.163 2.2812.163-.163.163-.2444.244-.3259 2.607-3.4217 7.739-3.0144 9.612.8147 1.385 2.6885 1.304 5.4585-.081 8.147-1.303 2.5255-4.236 3.7476-7.006 2.8514-.977-.3259-1.792-.8962-2.606-1.8738v3.7476 3.6661c-.815.0815-1.629.0815-2.525.0815zm2.443-12.3019h.082v1.222c.081 1.8738 1.303 3.4218 3.095 3.7476 1.874.3259 3.584-.4888 4.399-2.2811.815-1.8738.815-3.7476.082-5.6214-.652-1.6294-2.118-2.5256-3.748-2.4441-1.71.0815-3.177 1.3035-3.584 2.9329-.244.8147-.244 1.6294-.326 2.4441z"/><path d="m99.6385 51.4646v7.4137c-.8146 0-1.6292 0-2.5252 0 0-6.4361 0-12.8722 0-19.3897h2.1994c0 .6517.0815 1.3849.0815 2.1996.0814-.0814.1629-.0814.2443-.1629 1.4665-2.0367 3.5025-2.77 5.9465-2.2812 2.525.4889 3.829 2.2812 4.399 4.6438.489 2.0367.407 4.0735-.489 6.0288-1.222 2.8514-4.317 4.2364-7.25 3.4217-.977-.2444-1.547-.6518-2.6065-1.8738zm-.0814-4.9697h.1629c0 .4889-.0815 1.0591 0 1.548.1629 1.7923 1.385 3.0958 3.095 3.4217 1.874.3259 3.503-.4888 4.318-2.1182.896-1.8738.896-3.8291.163-5.7029-.652-1.6294-2.118-2.5256-3.747-2.4441-1.711.0815-3.177 1.2221-3.5846 2.9329-.3259.8147-.3259 1.6294-.4073 2.3626z"/><path d="m78.2959 53.3386c.8961-2.607 1.7106-5.1325 2.6067-7.5766 1.2219-3.6662 2.5253-7.4138 3.7472-11.0799.1629-.4073.3258-.5703.7331-.5703.5702.0815 1.2219.0815 1.7921 0 .4888 0 .6517.163.8146.5703 1.4663 4.3179 2.9326 8.7172 4.3988 13.0351.6517 1.8738 1.3034 3.6662 1.9551 5.6214-.8961 0-1.7107 0-2.5253 0-.1629 0-.2444-.3258-.3258-.4888-.5702-1.6294-1.1405-3.3402-1.7107-4.9696-.1629-.4074-.3258-.5703-.8146-.5703-1.8736 0-3.7471 0-5.7022 0-.4073 0-.5702.1629-.7331.5703-.5702 1.7108-1.1404 3.3402-1.6292 5.0511-.1629.4073-.3258.5703-.7331.4888-.4073-.1629-1.059-.0815-1.8736-.0815zm10.8342-8.0655c-.9776-3.0143-1.9551-5.8658-2.8511-8.7172-.8961 2.8514-1.8736 5.7029-2.8511 8.7172z"/><path d="m145.743 34.6825c-.244.7332-.488 1.385-.651 1.9553-.978-.2444-1.955-.6518-2.933-.6518-.896-.0815-1.873 0-2.77.3259-1.955.7332-2.362 3.3403-.651 4.6438.814.6517 1.792.9776 2.769 1.4664.978.4888 2.037.8962 2.852 1.5479 3.095 2.1997 2.851 6.8435-.489 8.7173-2.851 1.5479-5.865 1.3035-8.716 0-.163-.0815-.245-.4074-.245-.5703.163-.5703.326-1.1406.489-1.5479 1.222.3259 2.444.8147 3.666.9776.977.0815 2.036 0 2.932-.3259 2.281-.8147 2.688-3.829.815-5.2955-.815-.6517-1.792-.9776-2.688-1.4664-.978-.4889-2.118-.8962-2.933-1.6294-2.688-2.0368-2.525-6.0288.244-7.8211 2.607-1.7923 5.377-1.4665 8.309-.3259z"/><path d="m157.963 45.8439c.081-2.1997.977-4.5623 3.666-5.8659 2.362-1.1405 4.806-1.1405 7.005.4074 2.362 1.5479 3.014 3.992 2.851 6.599-.326 6.0288-5.946 7.5767-9.531 6.1917-2.525-1.1406-3.991-3.5846-3.991-7.3322zm2.525.5702c0 1.1406.245 2.1997.815 3.1774 1.629 2.7699 5.132 2.7699 6.761.0814 1.222-2.1182 1.222-4.3993 0-6.5175-1.466-2.6885-5.132-2.6885-6.761-.0815-.57 1.0591-.815 2.1997-.815 3.3402z"/><path d="m185.092 46.8216c0 2.8514 1.711 4.7252 4.48 4.7252 1.304 0 2.688-.3259 4.073-.4888.082.4073.245.9776.408 1.6294-2.689.8961-5.295 1.3035-7.902.0814-1.466-.6517-2.525-1.8738-3.014-3.4217-.815-2.3626-.652-4.6437.489-6.9249 1.385-2.6885 4.399-3.992 7.331-3.1773 2.444.7332 3.503 2.6885 3.829 5.0511.081.7332 0 1.5479 0 2.3626-3.259.163-6.436.163-9.694.163zm7.25-1.7924c.081-2.4441-1.303-3.992-3.503-3.992-2.036 0-3.828 1.9553-3.747 3.992z"/><path d="m38.706 20.6697c-.9775-5.4585 4.3174-11.97607 10.5898-12.22048.0814 1.22204.0814 2.44408-.2444 3.58468-.9776 3.5846-3.014 6.2731-6.3539 7.984-1.2219.6518-2.6067.8147-3.9915.6518z"/><path d="m150.225 41.4441c-.733 0-1.384 0-2.118 0 0-.6518 0-1.3035 0-1.9553h2.118c0-1.1405 0-2.1996 0-3.3402.815-.2444 1.63-.4074 2.526-.6518v3.992h3.502v1.9553c-1.14 0-2.281 0-3.502 0 0 .2444-.082.4074-.082.5703v7.0064.2444c.082 1.8738.815 2.5255 2.688 2.2811.163 0 .326-.0814.652-.0814 0 .5703.081 1.1405.081 1.7108 0 .0815-.163.2444-.325.3259-1.059.3259-2.2.4074-3.259 0-1.222-.4073-1.873-1.3035-2.118-2.5255-.081-.6518-.163-1.2221-.163-1.8739 0-2.607 0-5.0511 0-7.6581z"/><path d="m177.107 53.2572c-.896 0-1.629 0-2.525 0 0-4.5623 0-9.1246 0-13.7683h2.199v2.5255c1.059-1.8738 2.362-3.0958 4.643-2.77v2.3627l-.081.0814c-2.851-.4073-4.155 1.8738-4.236 3.9106-.082 2.3626 0 4.6437 0 7.0064z"/></g><path d="m115.767 46.577c.081-.8147.081-1.6294.325-2.3626.408-1.7109 1.874-2.8515 3.585-2.9329 1.629-.0815 3.014.8147 3.747 2.4441.814 1.8738.733 3.7476-.082 5.6214-.733 1.7923-2.443 2.607-4.398 2.2811-1.793-.3259-3.014-1.7923-3.096-3.7476 0-.4073 0-.8147 0-1.222 0-.0815 0-.0815-.081-.0815z" fill="#fff"/><path d="m99.5559 46.4957c.0815-.8147.0815-1.6294.3259-2.3626.4892-1.7109 1.9552-2.8515 3.5842-2.9329 1.629-.0815 3.014.8147 3.747 2.4441.815 1.8738.733 3.829-.163 5.7028-.814 1.7109-2.444 2.4441-4.317 2.1182-1.629-.3258-2.9327-1.6293-3.0956-3.4217-.0815-.4888 0-1.0591 0-1.5479z" fill="#fff"/><path d="m89.1293 45.2732c-1.8736 0-3.7472 0-5.6208 0 .9776-2.9329 1.8736-5.8659 2.8511-8.7173.8961 2.8514 1.7922 5.7029 2.7697 8.7173z" fill="#fff"/><path d="m160.49 46.4133c0-1.1406.244-2.2812.814-3.3403 1.548-2.6885 5.214-2.607 6.761.0815 1.141 2.1182 1.222 4.3994 0 6.5176-1.547 2.7699-5.131 2.6885-6.761-.0815-.57-.9776-.814-2.0367-.814-3.1773z" fill="#fff"/><path d="m192.34 45.0281c-2.363 0-4.806 0-7.169 0-.081-2.0367 1.711-3.992 3.747-3.992 2.118 0 3.585 1.548 3.422 3.992z" fill="#fff"/><path d="m84.2617 15.7197c0-.5286-.1937-.9479-.581-1.2578-.3828-.3144-.9229-.4717-1.6202-.4717-.5833 0-1.0732.1618-1.4697.4854-.3919.319-.5879.7155-.5879 1.1894h-1.3125c0-.5286.1436-1.0026.4307-1.4218.2917-.4193.6973-.7452 1.2168-.9776.5195-.237 1.0937-.3554 1.7226-.3554 1.112 0 1.9756.2506 2.5909.7519.6152.4968.9228 1.1895.9228 2.0781 0 .4603-.1413.8796-.4238 1.2578-.2826.3783-.6768.6768-1.1826.8956 1.1712.3919 1.7568 1.1689 1.7568 2.331 0 .8932-.3327 1.6019-.998 2.126-.6654.5241-1.5541.7861-2.6661.7861-.6608 0-1.2623-.1162-1.8046-.3486-.5378-.237-.9571-.572-1.2579-1.0049-.3007-.4329-.4511-.9479-.4511-1.5449h1.3125c0 .5241.2073.9616.622 1.3125.4148.3463.9411.5195 1.5791.5195.7155 0 1.2852-.1663 1.709-.499.4284-.3327.6426-.7725.6426-1.3193 0-1.1667-.7223-1.7614-2.167-1.7842h-1.2305v-1.0801h1.2237c.6653-.0137 1.1689-.1641 1.5107-.4512s.5127-.6927.5127-1.2168zm7.5742 7.2803c-.0729-.1458-.1321-.4056-.1777-.7793-.5879.6107-1.2897.916-2.1055.916-.7291 0-1.3284-.2051-1.7978-.6152-.4649-.4147-.6973-.9388-.6973-1.5723 0-.7702.2917-1.3672.875-1.791.5879-.4284 1.4128-.6426 2.4746-.6426h1.2305v-.581c0-.4421-.1322-.793-.3965-1.0528-.2643-.2643-.654-.3964-1.1689-.3964-.4512 0-.8295.1139-1.1348.3417-.3053.2279-.458.5036-.458.8272h-1.2715c0-.3691.1299-.7246.3897-1.0664.2643-.3464.6197-.6198 1.0664-.8203.4511-.2005.9456-.3008 1.4834-.3008.8522 0 1.5198.2142 2.0029.6426.4831.4238.7337 1.0094.7519 1.7568v3.4043c0 .679.0866 1.2191.2598 1.6201v.1094zm-2.0986-.9639c.3965 0 .7725-.1025 1.1279-.3076.3555-.2051.613-.4717.7725-.7998v-1.5176h-.9912c-1.5495 0-2.3242.4535-2.3242 1.3604 0 .3965.1321.7064.3965.9297.2643.2233.6038.3349 1.0185.3349zm9.9258-5.3867h-3.4111v6.3506h-1.2715v-7.3965h4.6826zm7.3489 2.7344c0 1.1256-.258 2.0325-.773 2.7207-.515.6881-1.212 1.0322-2.092 1.0322-.897 0-1.604-.2848-2.119-.8545v3.5616h-1.264v-10.2403h1.155l.061.8203c.515-.638 1.231-.957 2.147-.957.889 0 1.59.335 2.105 1.0049.52.6699.78 1.6019.78 2.7959zm-1.265-.1436c0-.834-.178-1.4925-.533-1.9756-.356-.483-.843-.7246-1.463-.7246-.766 0-1.34.3396-1.723 1.0186v3.5342c.379.6745.957 1.0117 1.737 1.0117.606 0 1.087-.2393 1.442-.7178.36-.4831.54-1.1985.54-2.1465zm5.216 1.9073 1.723-5.544h1.353l-2.974 8.5381c-.46 1.2305-1.191 1.8457-2.194 1.8457l-.239-.0205-.472-.0889v-1.0254l.342.0274c.428 0 .761-.0866.998-.2598.242-.1732.44-.4899.595-.9502l.28-.7519-2.639-7.3145h1.381zm8.278-3.5205c0-.3464-.132-.6198-.396-.8204-.265-.205-.627-.3076-1.087-.3076-.447 0-.82.1162-1.121.3487-.297.2324-.445.5058-.445.8203h-1.257c0-.6426.268-1.169.806-1.5791.538-.4102 1.21-.6153 2.017-.6153.866 0 1.54.1869 2.023.5606.483.3691.725.8978.725 1.5859 0 .3327-.1.638-.301.916-.2.278-.485.4991-.854.6631.861.2917 1.292.8659 1.292 1.7227 0 .679-.262 1.2168-.787 1.6133-.524.3964-1.223.5947-2.098.5947-.852 0-1.557-.2074-2.112-.6221-.552-.4193-.828-.9844-.828-1.6953h1.258c0 .36.16.6699.479.9297.323.2552.724.3828 1.203.3828.483 0 .873-.1117 1.169-.335s.444-.5127.444-.8681c0-.4147-.125-.711-.376-.8887-.246-.1823-.631-.2734-1.155-.2734h-1.265v-1.0664h1.374c.862-.0228 1.292-.3783 1.292-1.0664zm7.827-2.0235h1.265v7.3965h-1.265v-5.3936l-3.411 5.3936h-1.264v-7.3965h1.264v5.4004zm8.791 1.0254h-2.481v6.3711h-1.265v-6.3711h-2.433v-1.0254h6.179zm3.753 6.5078c-1.002 0-1.818-.3281-2.447-.9844-.629-.6608-.943-1.5426-.943-2.6455v-.2324c0-.7337.139-1.3877.417-1.9619.282-.5788.674-1.0299 1.175-1.3535.506-.3281 1.053-.4922 1.641-.4922.962 0 1.709.3167 2.242.9502s.8 1.5404.8 2.7207v.5264h-5.011c.019.7291.23 1.3193.636 1.7705.41.4466.93.6699 1.559.6699.446 0 .825-.0912 1.134-.2734.31-.1823.581-.4239.814-.7247l.772.6016c-.619.9525-1.549 1.4287-2.789 1.4287zm-.157-6.6308c-.51 0-.939.1868-1.285.5605-.346.3691-.561.8887-.643 1.5586h3.705v-.0957c-.036-.6426-.209-1.1393-.519-1.4902-.31-.3555-.729-.5332-1.258-.5332zm8.101 6.4941v-7.3965h2.884c.985 0 1.739.1732 2.263.5195.529.3418.793.8454.793 1.5108 0 .3418-.102.6517-.308.9297-.205.2734-.508.483-.909.6289.447.1048.805.3099 1.074.6152.273.3054.41.6699.41 1.0938 0 .679-.251 1.1985-.752 1.5586-.497.36-1.201.54-2.113.54zm1.264-3.2471v2.2285h2.092c.529 0 .923-.0979 1.183-.2939.264-.196.396-.4717.396-.8271 0-.7383-.542-1.1075-1.627-1.1075zm0-1.0117h1.634c1.185 0 1.777-.3463 1.777-1.0391 0-.6927-.56-1.0504-1.681-1.0732h-1.73z" fill="#959595"/></svg>