<svg fill="none" viewBox="0 0 219 72" xmlns="http://www.w3.org/2000/svg" xmlns:xlink="http://www.w3.org/1999/xlink"><linearGradient id="a" gradientUnits="userSpaceOnUse" x1="28.2036" x2="28.2036" y1="53.205" y2="23.531"><stop offset="0" stop-color="#87c3bd"/><stop offset="1" stop-color="#3085b0"/></linearGradient><linearGradient id="b" gradientUnits="userSpaceOnUse" x1="16.7155" x2="47.0277" y1="49.9879" y2="49.9879"><stop offset="0" stop-color="#9b4286"/><stop offset="1" stop-color="#d33d4d"/></linearGradient><linearGradient id="c" gradientUnits="userSpaceOnUse" x1="16.8822" x2="46.8745" y1="26.3715" y2="26.3715"><stop offset="0" stop-color="#7cc0a4"/><stop offset="1" stop-color="#d1e29b"/></linearGradient><linearGradient id="d" gradientUnits="userSpaceOnUse" x1="48.9414" x2="48.9414" y1="33.149" y2="43.4098"><stop offset="0" stop-color="#f09670"/><stop offset="1" stop-color="#f2b573"/></linearGradient><rect fill="#fff" height="72" rx="7" width="219"/><g fill="#959595"><path d="m86.406 28.8405c-1.2219 1.548-2.3623 2.4441-3.5028 2.6071.2444-.4074.4888-.7333.7332-1.1406-1.6292-1.7109-3.6657-2.6885-6.028-2.77-3.9916-.0814-7.1685 2.3626-8.146 6.1917-1.3034 5.1326 1.4662 10.754 6.2724 12.5463 2.2808.8962 4.5617.9777 6.9241.2444.5702-.1629.7331-.4073.7331-.9776-.0815-1.3035 0-2.607 0-3.992-1.4663.0815-2.8511.1629-4.3174.2444 1.059-.5703 1.8736-1.385 3.177-1.385 1.7106.0815 3.4213 0 5.2134 0v.163c-.8146.5702-1.059 1.3849-.9775 2.2811.0814 1.1406 0 2.1997 0 3.3403 0 .3258-.0815.4888-.4073.5703-2.6882.6517-5.3764 1.3035-8.146 1.3849-3.9915.0815-7.5758-.9776-9.9381-4.3993-4.3174-6.1917-1.4663-15.4792 7.1685-17.1086 3.6656-.7333 7.2499-.2444 10.5897 1.6294.1629.1629.4073.3258.6517.5702z"/><path d="m127.219 46.764c-.733-.9776-1.059-1.8738-.57-3.0959-.57 0-1.059.0815-1.629 0-2.037-.3258-3.503-1.3849-4.073-3.4217-.57-2.1182.244-3.829 1.792-5.214 1.303-1.1406 2.851-1.5479 4.562-1.5479 2.199-.0815 4.399 0 6.761 0-1.059.8146-2.118 1.3849-3.584 1.0591.244.2444.326.4073.407.4888 2.118 2.0367 2.118 5.0511-.081 7.0878-.408.4074-.896.7333-1.222 1.1406-.652.7332-.571 1.4665.163 2.0367.733.5703 1.466 1.1406 2.118 1.7924 2.118 1.9552 2.118 4.9696-.082 6.9249-1.303 1.222-2.932 1.7923-4.725 1.9553-1.873.1629-3.665.1629-5.457-.7333-2.933-1.4664-3.259-4.8881-.489-6.7619 1.466-1.0591 3.177-1.385 4.887-1.548.489-.0814.815-.0814 1.222-.1629zm0 8.147c.896-.2445 1.792-.3259 2.607-.7333 1.141-.4888 1.711-1.4664 1.711-2.7699-.082-1.1406-2.2-3.6662-3.422-3.6662-1.466-.0814-2.932.0815-4.317.8147-2.199 1.1406-2.362 3.8291-.326 5.2141 1.141.7332 2.363.9776 3.747 1.1406zm2.689-15.2349c-.082-1.5479-.571-3.1773-1.793-4.3993-1.629-1.5479-3.991-.7332-4.398 1.385-.326 1.7923.163 3.5032 1.222 4.9696.814 1.1406 2.036 1.4665 3.258 1.0591 1.14-.4073 1.711-1.385 1.711-3.0144z"/><path d="m163.551 33.2393h1.711c.081.5703.244 1.2221.326 1.7924.081-.0815.163-.0815.163-.0815 1.547-1.9553 3.584-2.2812 5.865-1.7923 2.199.4888 3.421 2.0367 3.991 4.1549.57 2.3626.652 4.7253-.326 7.0064-1.629 3.8291-6.598 4.6438-9.449 1.5479-.081-.0814 0-.1629-.081-.2444-.082.0815-.082.0815-.163.163v7.984c-.652 0-1.385 0-2.118 0 .081-6.9249.081-13.6869.081-20.5304zm2.037 6.9249c.081.8962.163 1.8739.407 2.77.407 1.7923 1.466 2.6885 3.421 2.8515 1.629.1629 3.014-.5703 3.666-2.1997.896-2.1997.896-4.3994 0-6.5991-.652-1.6294-1.955-2.2811-3.91-2.1182-1.711.163-2.77.9777-3.177 2.6885-.244.8147-.244 1.7109-.407 2.607z"/><path d="m209.331 33.2394c-.57 1.5479-1.14 2.9329-1.629 4.3993-1.466 3.9106-2.932 7.7396-4.399 11.6502-.163.4888-.407.9776-.651 1.4664-1.385 2.6885-3.503 3.6662-6.517 2.77 0-.4888 0-1.0591 0-1.7109.407 0 .896 0 1.303.0815 1.466.0815 2.525-.5703 3.177-1.8738.326-.7332.652-1.5479.896-2.2811.082-.2445 0-.6518-.163-.8962-1.71-4.2364-3.421-8.4729-5.132-12.7907-.081-.2445-.163-.4889-.326-.8147h2.118c.163 0 .326.2444.326.4073 1.466 3.8291 2.851 7.5767 4.318 11.3243 0 0 .081-.0815.081-.2444 1.303-3.6662 2.607-7.3323 3.829-10.9984.163-.4074.325-.5703.733-.4888z"/><path d="m192.713 45.3785c-.896.9776-1.711 1.7923-2.933 2.0367-1.222.2445-2.443.3259-3.665 0-1.467-.4888-2.444-1.4664-2.689-3.0143-.244-1.6294.082-3.0959 1.548-4.155 1.141-.8147 2.525-1.1405 3.91-1.222 1.222-.0815 2.444-.163 3.666-.163 0-.1629.081-.2444.081-.3258.082-3.0144-1.221-4.155-4.154-3.5847-.896.1629-1.792.5703-2.77.8147-.163-.4888-.407-.9776-.733-1.6294.733-.3259 1.466-.6518 2.281-.8147 1.222-.1629 2.444-.3259 3.666-.2444 2.362.1629 3.747 1.385 3.828 3.6661.163 3.5032 0 7.0064 0 10.5911-.488 0-1.059 0-1.629 0-.081-.5703-.244-1.2221-.407-1.9553zm0-4.9696c-1.629.1629-3.177.3258-4.643.4888-.489.0815-.896.3259-1.304.5703-1.385.9776-1.385 3.2588 0 4.0735 2.118 1.1405 5.214-.163 5.702-2.5256.163-.8962.163-1.6294.245-2.607z"/><path d="m112.229 33.0769c4.073 0 7.087 3.0144 7.087 7.0064 0 4.0735-3.258 7.1693-7.494 7.1693-4.155 0-7.25-3.0958-7.25-7.0878.081-3.9921 3.421-7.0879 7.657-7.0879zm4.318 8.4728c-.245-2.1182-.652-4.0734-1.874-5.7843-1.059-1.4664-2.607-2.0367-4.236-1.5479-1.711.4888-2.77 1.7923-2.851 3.5846-.163 1.8738.163 3.7476.978 5.377.407.8147.977 1.6294 1.71 2.2812 1.792 1.5479 4.48.8962 5.539-1.2221.408-.8147.489-1.7923.734-2.6885z"/><path d="m96.2639 33.0769c4.0731 0 7.0871 3.0144 7.0871 7.0064 0 4.0735-3.34 7.1693-7.5759 7.1693-4.1544 0-7.1684-3.0144-7.1684-7.0878.0814-3.9921 3.3398-7.0879 7.6572-7.0879zm4.1541 8.7173c-.081-2.3627-.4884-4.3994-1.8732-6.1917-.9775-1.3036-2.2809-1.8738-3.8286-1.548-1.5478.3259-2.6882 1.2221-3.014 2.8515-.5703 2.9329 0 5.7843 2.0364 8.0655 1.9551 2.2811 5.4579 1.385 6.3544-1.4665.244-.5703.244-1.3035.325-1.7108z"/><path d="m153.286 44.8087c-.978 1.3849-2.281 2.1182-3.992 2.4441-3.014.4888-5.621-.6518-7.087-3.2588-1.548-2.6885-1.385-6.2732.407-8.4729 1.711-2.0367 4.644-2.9329 7.087-2.1997 1.711.4889 2.851 1.7109 3.34 3.5847-.733.3259-1.548.6518-2.281.9776-.733.3259-1.466.5703-2.199.8962-1.466.6518-2.933 1.2221-4.562 1.0591-.081 3.5847 3.91 6.5991 7.413 5.7029.57-.2444 1.222-.4888 1.874-.7332zm-9.694-5.2956c.081 0 .163.0815.244.0815 1.792-.8147 3.585-1.5479 5.377-2.3626.733-.3259.814-.6518.57-1.3035-.163-.3259-.326-.5703-.489-.8147-1.629-1.7923-4.48-1.1406-5.295 1.222-.244 1.0591-.244 2.1182-.407 3.1773z"/><path d="m141.311 46.2744c-.57.163-1.141.4074-1.711.4889-1.466.0814-3.014 0-4.725 0 1.141-.9777.897-2.1997.897-3.3403 0-5.2141 0-10.5096 0-15.7236 0-.2445 0-.4889 0-.7333-.734 0-1.385 0-2.118 0 .977-1.0591 3.91-1.5479 6.353-1.0591-1.303.4888-1.384 1.5479-1.384 2.6885v15.7237c0 1.4664.081 1.5479 1.547 1.7108.326 0 .652.0815 1.059.0815 0 0 0 .0815.082.1629z"/><path d="m180.901 47.415c-.733 0-1.385 0-2.118 0 0-6.6805 0-13.361 0-20.0415h2.118z"/><path d="m155.811 35.2767c0-.7332 0-1.4664 0-2.1996.489-.163.489.2444.57.4888s.163.5703.326.8147c.489-.4074.081-1.3035.977-1.385v2.1997c-.081 0-.163 0-.163 0 0-.4074-.081-.8962-.081-1.4665-.163.5703-.326 1.0591-.489 1.4665-.081 0-.081 0-.163 0-.163-.4074-.326-.8147-.488-1.2221h-.082v1.2221c-.326.0815-.326.0814-.407.0814z"/><path d="m155.404 33.2397c-.163 0-.326.0814-.652.1629v1.8738c-.081 0-.163 0-.244 0 0-.6517 0-1.222 0-1.8738-.326-.0815-.489-.1629-.652-.1629v-.0815h1.466c.082 0 .082.0815.082.0815z"/></g><path d="m16.9228 14.6646c-.3259 0-.7332.2444-.8146.7332-.1629.2444-.0815 42.4456-.0815 45.5415 0 .4073.1629.8147.7332.8961.6516-.6517 23.5418-23.5447 23.7048-23.7076-.4073-.3259-22.8088-22.73-23.5419-23.4632z" fill="url(#a)"/><path d="m47.0603 44.6444c-1.059-1.0591-2.118-2.1182-3.1769-3.2587-1.059-1.0591-3.3399-3.3403-3.4214-3.3403-.1629.2444-23.1345 23.1374-23.7862 23.7891.4073-.0814.8146-.1629 1.2219-.3258 3.4213-1.9553 6.7611-3.9106 10.1825-5.8659 2.2808-1.3035 4.4802-2.607 6.7611-3.9105 2.1994-1.3035 4.3988-2.5256 6.5983-3.8291 1.7921-1.0591 3.5842-2.1182 5.3763-3.0958.0815-.0815.1629-.0815.2444-.163z" fill="url(#b)"/><path d="m16.1084 15.3989c0 .0817 0 .1634-.0815.2452 0-.0818 0-.1635.0815-.2452z" fill="#3d5d5e"/><path d="m39.323 27.2108c-.0815-.0817-.1631-.1634-.2446-.1634.0815 0 .1631.0817.2446.1634z" fill="#bbd99f"/><path d="m33.7042 23.8705c-.0815 0-.0815-.0817-.1629-.0817.0814.0817.1629.0817.1629.0817z" fill="#a4cfa0"/><path d="m16.9226 14.6641c.4888.5702 14.8257 14.746 23.5419 23.4632l6.4353-6.599c-11.6487-6.762-29.407-16.9457-29.9772-16.8642z" fill="url(#c)"/><path d="m40.4641 38.1274 6.5983 6.5991c-.3259-.4074-3.0141-3.0144-6.5983-6.5991z" fill="#a4cfa0"/><path d="m53.9864 40.7344c.9776-.5703 1.8736-1.0591 2.7697-1.6294.4887-.3259.896-.6518.5702-1.3035-.2444-.2444-.4888-.4888-.7331-.6518-.9776-.5703-4.8062-2.7699-9.6938-5.6214l-6.4353 6.5991c3.5842 3.5846 6.2724 6.2731 6.5983 6.599.1629-.0815.4073-.1629.5702-.2444 2.1179-1.3035 4.2359-2.5256 6.3538-3.7476z" fill="url(#d)"/><path d="m76.1104 20.4404h-1.3057v-2.4404h-7.1436v2.4473h-1.3125l-.0068-3.5205h.8135c.4284-.4831.7679-1.1303 1.0185-1.9414.2552-.8158.4147-1.709.4785-2.6797l.2188-4.25882h5.9541v8.87992h1.2988zm-7.4581-3.5136h4.8536v-7.79985h-3.3702l-.1435 2.92575c-.0593 1.1439-.2119 2.1192-.458 2.9258-.2416.8067-.5355 1.4561-.8819 1.9483zm8.4971-2.6934c0-.7246.1413-1.3763.4238-1.9551.2872-.5788.6836-1.0254 1.1895-1.3398.5104-.3145 1.0915-.4717 1.7432-.4717 1.0071 0 1.8206.3486 2.4404 1.0459.6243.6973.9365 1.6247.9365 2.7822v.0889c0 .72-.139 1.3672-.417 1.9414-.2734.5697-.6676 1.014-1.1826 1.333-.5104.319-1.0983.4785-1.7637.4785-1.0026 0-1.816-.3486-2.4404-1.0459-.6198-.6972-.9297-1.6201-.9297-2.7685zm1.2715.1504c0 .8203.1891 1.4788.5674 1.9756.3828.4967.8932.7451 1.5312.7451.6426 0 1.153-.2507 1.5313-.752.3782-.5058.5674-1.2122.5674-2.1191 0-.8112-.1937-1.4674-.5811-1.9688-.3828-.5058-.8932-.7587-1.5312-.7587-.6244 0-1.128.2483-1.5108.7451-.3828.4967-.5742 1.2077-.5742 2.1328zm10.0146 2.7207c.4512 0 .8454-.1367 1.1827-.4102.3372-.2734.5241-.6152.5605-1.0254h1.1963c-.0228.4239-.1686.8272-.4375 1.21s-.6289.6882-1.0801.916c-.4466.2279-.9206.3418-1.4219.3418-1.0071 0-1.8092-.3349-2.4062-1.0049-.5925-.6744-.8887-1.595-.8887-2.7617v-.2119c0-.72.1322-1.3603.3965-1.9209.2643-.5605.6426-.9958 1.1348-1.3057.4967-.3099 1.0823-.4648 1.7568-.4648.8294 0 1.5176.2484 2.0645.7451.5514.4968.8453 1.1416.8818 1.9346h-1.1963c-.0364-.4785-.2187-.8705-.5469-1.1758-.3235-.3099-.7246-.4648-1.2031-.4648-.6426 0-1.1416.2324-1.4971.6972-.3509.4603-.5263 1.128-.5263 2.003v.2392c0 .8522.1754 1.5085.5263 1.9688.351.4602.8523.6904 1.5039.6904zm9.8575-5.4756h-2.4815v6.3711h-1.2646v-6.3711h-2.4336v-1.0254h6.1797zm3.732 4.5186 1.723-5.544h1.354l-2.974 8.5381c-.46 1.2305-1.192 1.8457-2.1944 1.8457l-.2393-.0205-.4716-.0889v-1.0254l.3418.0274c.4283 0 .7615-.0866.9975-.2598.242-.1732.44-.4899.595-.9502l.281-.7519-2.6392-7.3145h1.3812zm10.261 1.8525h-1.265v-6.3506h-3.404v6.3506h-1.271v-7.3965h5.94zm8.073 0h-1.264v-3.1582h-3.398v3.1582h-1.271v-7.3965h1.271v3.2061h3.398v-3.2061h1.264zm1.703-3.7666c0-.7246.141-1.3763.423-1.9551.287-.5788.684-1.0254 1.19-1.3398.51-.3145 1.091-.4717 1.743-.4717 1.007 0 1.821.3486 2.44 1.0459.625.6973.937 1.6247.937 2.7822v.0889c0 .72-.139 1.3672-.417 1.9414-.274.5697-.668 1.014-1.183 1.333-.51.319-1.098.4785-1.763.4785-1.003 0-1.816-.3486-2.441-1.0459-.62-.6972-.929-1.6201-.929-2.7685zm1.271.1504c0 .8203.189 1.4788.567 1.9756.383.4967.894.7451 1.532.7451.642 0 1.153-.2507 1.531-.752.378-.5058.567-1.2122.567-2.1191 0-.8112-.193-1.4674-.581-1.9688-.383-.5058-.893-.7587-1.531-.7587-.624 0-1.128.2483-1.511.7451-.383.4967-.574 1.2077-.574 2.1328zm10.637 3.6162v-7.3965h2.884c.985 0 1.739.1732 2.263.5195.529.3418.793.8454.793 1.5108 0 .3418-.102.6517-.307.9297-.206.2734-.509.483-.91.6289.447.1048.805.3099 1.074.6152.273.3054.41.6699.41 1.0938 0 .679-.251 1.1985-.752 1.5586-.497.36-1.201.54-2.113.54zm1.264-3.2471v2.2285h2.092c.529 0 .923-.0979 1.183-.2939.264-.196.396-.4717.396-.8271 0-.7383-.542-1.1075-1.627-1.1075zm0-1.0117h1.634c1.185 0 1.778-.3463 1.778-1.0391 0-.6927-.561-1.0504-1.682-1.0732h-1.73z" fill="#959595"/></svg>